Source : WOMBAT(Thanks)
 
http://www.imdb.com/title/tt2320030/

Format                                   : AVI
Format/Info                              : Audio Video Interleave
File size                                : 697 MiB
Duration                                 : 1h 29mn
Overall bit rate                         : 1 092 Kbps
Writing library                          : VirtualDub build 32842/release

Video
ID                                       : 0
Format                                   : MPEG-4 Visual
Format profile                           : Advanced Simple@L5
Format settings, BVOP                    : 2
Format settings, QPel                    : No
Format settings, GMC                     : No warppoints
Format settings, Matrix                  : Default (H.263)
Muxing mode                              : Packed bitstream
Codec ID                                 : XVID
Codec ID/Hint                            : XviD
Duration                                 : 1h 29mn
Bit rate                                 : 954 Kbps
Width                                    : 640 pixels
Height                                   : 320 pixels
Display aspect ratio                     : 2.000
Frame rate                               : 23.976 fps
Color space                              : YUV
Chroma subsampling                       : 4:2:0
Bit depth                                : 8 bits
Scan type                                : Progressive
Compression mode                         : Lossy
Bits/(Pixel*Frame)                       : 0.194
Stream size                              : 609 MiB (87%)
Writing library                          : XviD 64

Audio
ID                                       : 1
Format                                   : MPEG Audio
Format version                           : Version 1
Format profile                           : Layer 3
Mode                                     : Joint stereo
Mode extension                           : MS Stereo
Codec ID                                 : 55
Codec ID/Hint                            : MP3
Duration                                 : 1h 29mn
Bit rate mode                            : Constant
Bit rate                                 : 128 Kbps
Channel(s)                               : 2 channels
Sampling rate                            : 48.0 KHz
Compression mode                         : Lossy
Stream size                              : 81.7 MiB (12%)
Alignment                                : Split accross interleaves
Interleave, duration                     : 42 ms (1.00 video frame)
Interleave, preload duration             : 500 ms
Writing library                          : LAME3.98
 
http://www.shotpix.com/images/03619350560678568827.png 
http://www.shotpix.com/images/84953495463413501718.png 
http://www.shotpix.com/images/86363168993775952109.png